<svg width="137" height="23" viewBox="0 0 137 23" fill="none" xmlns="http://www.w3.org/2000/svg">
<path d="M8.20455 22.3196C6.54972 22.3196 5.11861 21.968 3.91122 21.2649C2.71094 20.5547 1.78409 19.5675 1.13068 18.3033C0.477273 17.032 0.150568 15.5582 0.150568 13.8821C0.150568 12.1918 0.477273 10.7145 1.13068 9.45028C1.78409 8.17898 2.71094 7.19176 3.91122 6.48864C5.11861 5.77841 6.54972 5.4233 8.20455 5.4233C9.85938 5.4233 11.2869 5.77841 12.4872 6.48864C13.6946 7.19176 14.625 8.17898 15.2784 9.45028C15.9318 10.7145 16.2585 12.1918 16.2585 13.8821C16.2585 15.5582 15.9318 17.032 15.2784 18.3033C14.625 19.5675 13.6946 20.5547 12.4872 21.2649C11.2869 21.968 9.85938 22.3196 8.20455 22.3196ZM8.22585 18.804C8.97869 18.804 9.60724 18.5909 10.1115 18.1648C10.6158 17.7315 10.9957 17.142 11.2514 16.3963C11.5142 15.6506 11.6456 14.8018 11.6456 13.8501C11.6456 12.8984 11.5142 12.0497 11.2514 11.304C10.9957 10.5582 10.6158 9.96875 10.1115 9.53551C9.60724 9.10227 8.97869 8.88565 8.22585 8.88565C7.46591 8.88565 6.8267 9.10227 6.30824 9.53551C5.79688 9.96875 5.4098 10.5582 5.14702 11.304C4.89134 12.0497 4.76349 12.8984 4.76349 13.8501C4.76349 14.8018 4.89134 15.6506 5.14702 16.3963C5.4098 17.142 5.79688 17.7315 6.30824 18.1648C6.8267 18.5909 7.46591 18.804 8.22585 18.804ZM29.7031 15.0327V5.63636H34.2415V22H29.8842V19.0277H29.7138C29.3445 19.9865 28.7301 20.7571 27.8707 21.3395C27.0185 21.9219 25.978 22.2131 24.7493 22.2131C23.6555 22.2131 22.6932 21.9645 21.8622 21.4673C21.0313 20.9702 20.3814 20.2635 19.9126 19.3473C19.451 18.4311 19.2166 17.3338 19.2095 16.0554V5.63636H23.7479V15.2457C23.755 16.2116 24.0142 16.9751 24.5256 17.5362C25.0369 18.0973 25.7223 18.3778 26.5817 18.3778C27.1286 18.3778 27.6399 18.2536 28.1158 18.005C28.5916 17.7493 28.9751 17.3729 29.2663 16.8757C29.5646 16.3786 29.7102 15.7642 29.7031 15.0327ZM51.4867 10.3026L47.3319 10.5582C47.2608 10.2031 47.1081 9.88352 46.8738 9.59943C46.6394 9.30824 46.3304 9.07741 45.9469 8.90696C45.5705 8.7294 45.1195 8.64062 44.5939 8.64062C43.8908 8.64062 43.2978 8.78977 42.8148 9.08807C42.3319 9.37926 42.0904 9.76989 42.0904 10.2599C42.0904 10.6506 42.2466 10.9808 42.5591 11.2507C42.8716 11.5206 43.4078 11.7372 44.1678 11.9006L47.1294 12.4972C48.7203 12.8239 49.9064 13.3494 50.6877 14.0739C51.4689 14.7983 51.8596 15.75 51.8596 16.929C51.8596 18.0014 51.5435 18.9425 50.9114 19.7521C50.2864 20.5618 49.427 21.1939 48.3333 21.6484C47.2466 22.0959 45.9931 22.3196 44.5726 22.3196C42.4064 22.3196 40.6806 21.8686 39.3951 20.9666C38.1167 20.0575 37.3674 18.8217 37.1472 17.2592L41.611 17.0249C41.7459 17.6854 42.0726 18.1896 42.5911 18.5376C43.1096 18.8786 43.7736 19.049 44.5833 19.049C45.3787 19.049 46.0179 18.8963 46.5009 18.5909C46.9909 18.2784 47.2395 17.8771 47.2466 17.3871C47.2395 16.9751 47.0655 16.6378 46.7246 16.375C46.3837 16.1051 45.8581 15.8991 45.1479 15.7571L42.3141 15.1925C40.7161 14.8729 39.5265 14.3189 38.7452 13.5305C37.9711 12.7422 37.584 11.7372 37.584 10.5156C37.584 9.46449 37.8681 8.55895 38.4363 7.79901C39.0115 7.03906 39.8176 6.45313 40.8546 6.04119C41.8986 5.62926 43.1202 5.4233 44.5194 5.4233C46.5861 5.4233 48.2125 5.86009 49.3986 6.73366C50.5918 7.60724 51.2878 8.79687 51.4867 10.3026ZM59.2557 12.5398V22H54.7173V0.181818H59.1278V8.52344H59.3196C59.6889 7.55753 60.2855 6.80114 61.1094 6.25426C61.9332 5.70028 62.9666 5.4233 64.2095 5.4233C65.3459 5.4233 66.3366 5.67187 67.1818 6.16903C68.0341 6.65909 68.6946 7.36577 69.1634 8.28906C69.6392 9.20526 69.8736 10.3026 69.8665 11.581V22H65.3281V12.3906C65.3352 11.3821 65.0795 10.5973 64.5611 10.0362C64.0497 9.47514 63.3324 9.1946 62.4091 9.1946C61.7912 9.1946 61.2443 9.32599 60.7685 9.58878C60.2997 9.85156 59.9304 10.2351 59.6605 10.7393C59.3977 11.2365 59.2628 11.8366 59.2557 12.5398ZM78.1042 22.3089C77.0602 22.3089 76.1298 22.1278 75.313 21.7656C74.4963 21.3963 73.85 20.853 73.3741 20.1357C72.9054 19.4112 72.671 18.5092 72.671 17.4297C72.671 16.5206 72.8379 15.7571 73.1717 15.1392C73.5055 14.5213 73.96 14.0241 74.5353 13.6477C75.1106 13.2713 75.764 12.9872 76.4956 12.7955C77.2342 12.6037 78.0083 12.4688 78.818 12.3906C79.7697 12.2912 80.5368 12.1989 81.1191 12.1136C81.7015 12.0213 82.1241 11.8864 82.3869 11.7088C82.6497 11.5312 82.7811 11.2685 82.7811 10.9205V10.8565C82.7811 10.1818 82.568 9.6598 82.1419 9.29048C81.7228 8.92116 81.1262 8.73651 80.3521 8.73651C79.5353 8.73651 78.8855 8.91761 78.4025 9.27983C77.9196 9.63494 77.6 10.0824 77.4437 10.6222L73.2463 10.2812C73.4593 9.28693 73.8784 8.42756 74.5034 7.70312C75.1284 6.97159 75.9345 6.41051 76.9217 6.01989C77.916 5.62216 79.0666 5.4233 80.3734 5.4233C81.2825 5.4233 82.1525 5.52983 82.9835 5.7429C83.8216 5.95597 84.5637 6.28622 85.2101 6.73366C85.8635 7.18111 86.3784 7.75639 86.7548 8.45952C87.1312 9.15554 87.3194 9.99006 87.3194 10.9631V22H83.0154V19.7308H82.8876C82.6248 20.2422 82.2733 20.6932 81.8329 21.0838C81.3926 21.4673 80.8635 21.7692 80.2456 21.9893C79.6277 22.2024 78.9139 22.3089 78.1042 22.3089ZM79.4039 19.1768C80.0716 19.1768 80.661 19.0455 81.1724 18.7827C81.6838 18.5128 82.085 18.1506 82.3762 17.696C82.6674 17.2415 82.813 16.7266 82.813 16.1513V14.4148C82.671 14.5071 82.4757 14.5923 82.2271 14.6705C81.9856 14.7415 81.7122 14.8089 81.4068 14.8729C81.1014 14.9297 80.796 14.983 80.4906 15.0327C80.1852 15.0753 79.9082 15.1143 79.6596 15.1499C79.127 15.228 78.6618 15.3523 78.264 15.5227C77.8663 15.6932 77.5574 15.924 77.3372 16.2152C77.117 16.4993 77.0069 16.8544 77.0069 17.2805C77.0069 17.8984 77.2306 18.3707 77.6781 18.6974C78.1326 19.017 78.7079 19.1768 79.4039 19.1768ZM101.334 15.0327V5.63636H105.872V22H101.515V19.0277H101.345C100.975 19.9865 100.361 20.7571 99.5016 21.3395C98.6493 21.9219 97.6088 22.2131 96.3801 22.2131C95.2864 22.2131 94.324 21.9645 93.4931 21.4673C92.6621 20.9702 92.0123 20.2635 91.5435 19.3473C91.0819 18.4311 90.8475 17.3338 90.8404 16.0554V5.63636H95.3787V15.2457C95.3858 16.2116 95.6451 16.9751 96.1564 17.5362C96.6678 18.0973 97.3532 18.3778 98.2125 18.3778C98.7594 18.3778 99.2708 18.2536 99.7466 18.005C100.222 17.7493 100.606 17.3729 100.897 16.8757C101.195 16.3786 101.341 15.7642 101.334 15.0327ZM118.206 5.63636V9.04545H108.352V5.63636H118.206ZM110.589 1.71591H115.127V16.9716C115.127 17.3906 115.191 17.7173 115.319 17.9517C115.447 18.179 115.625 18.3388 115.852 18.4311C116.086 18.5234 116.356 18.5696 116.662 18.5696C116.875 18.5696 117.088 18.5518 117.301 18.5163C117.514 18.4737 117.677 18.4418 117.791 18.4205L118.505 21.7976C118.277 21.8686 117.958 21.9503 117.546 22.0426C117.134 22.142 116.633 22.2024 116.044 22.2237C114.95 22.2663 113.991 22.1207 113.167 21.7869C112.35 21.4531 111.715 20.9347 111.26 20.2315C110.806 19.5284 110.582 18.6406 110.589 17.5682V1.71591ZM128.38 22.3196C126.725 22.3196 125.294 21.968 124.087 21.2649C122.887 20.5547 121.96 19.5675 121.306 18.3033C120.653 17.032 120.326 15.5582 120.326 13.8821C120.326 12.1918 120.653 10.7145 121.306 9.45028C121.96 8.17898 122.887 7.19176 124.087 6.48864C125.294 5.77841 126.725 5.4233 128.38 5.4233C130.035 5.4233 131.463 5.77841 132.663 6.48864C133.87 7.19176 134.801 8.17898 135.454 9.45028C136.108 10.7145 136.434 12.1918 136.434 13.8821C136.434 15.5582 136.108 17.032 135.454 18.3033C134.801 19.5675 133.87 20.5547 132.663 21.2649C131.463 21.968 130.035 22.3196 128.38 22.3196ZM128.402 18.804C129.154 18.804 129.783 18.5909 130.287 18.1648C130.792 17.7315 131.172 17.142 131.427 16.3963C131.69 15.6506 131.821 14.8018 131.821 13.8501C131.821 12.8984 131.69 12.0497 131.427 11.304C131.172 10.5582 130.792 9.96875 130.287 9.53551C129.783 9.10227 129.154 8.88565 128.402 8.88565C127.642 8.88565 127.002 9.10227 126.484 9.53551C125.973 9.96875 125.586 10.5582 125.323 11.304C125.067 12.0497 124.939 12.8984 124.939 13.8501C124.939 14.8018 125.067 15.6506 125.323 16.3963C125.586 17.142 125.973 17.7315 126.484 18.1648C127.002 18.5909 127.642 18.804 128.402 18.804Z" fill="#E60000"/>
</svg>
